<svg width="72" height="72" viewBox="0 0 72 72" fill="none" xmlns="http://www.w3.org/2000/svg">
<g id="info_FILL0_wght200_GRAD0_opsz24 1">
<path id="Vector" d="M36.002 49.5C36.4276 49.5 36.7837 49.3563 37.0702 49.0688C37.3567 48.7812 37.5 48.425 37.5 48V34.5C37.5 34.075 37.3561 33.7188 37.0682 33.4313C36.7803 33.1438 36.4236 33 35.998 33C35.5724 33 35.2163 33.1438 34.9298 33.4313C34.6433 33.7188 34.5 34.075 34.5 34.5V48C34.5 48.425 34.644 48.7812 34.9319 49.0688C35.2197 49.3563 35.5764 49.5 36.002 49.5ZM36 28.7308C36.5231 28.7308 36.9616 28.5539 37.3154 28.2C37.6692 27.8462 37.8461 27.4077 37.8461 26.8846C37.8461 26.3615 37.6692 25.9231 37.3154 25.5692C36.9616 25.2154 36.5231 25.0385 36 25.0385C35.4769 25.0385 35.0384 25.2154 34.6846 25.5692C34.3308 25.9231 34.1539 26.3615 34.1539 26.8846C34.1539 27.4077 34.3308 27.8462 34.6846 28.2C35.0384 28.5539 35.4769 28.7308 36 28.7308ZM36.0101 63C32.2764 63 28.7662 62.2915 25.4793 60.8746C22.1925 59.4576 19.3333 57.5345 16.9019 55.1054C14.4706 52.6763 12.5457 49.8199 11.1274 46.5362C9.70915 43.2523 9 39.7437 9 36.0101C9 32.2764 9.70848 28.7662 11.1254 25.4793C12.5424 22.1925 14.4655 19.3333 16.8946 16.9019C19.3237 14.4706 22.1801 12.5458 25.4639 11.1275C28.7477 9.70915 32.2564 9 35.99 9C39.7236 9 43.2339 9.70847 46.5207 11.1254C49.8076 12.5424 52.6667 14.4655 55.0981 16.8946C57.5294 19.3237 59.4543 22.1801 60.8726 25.4639C62.2909 28.7477 63 32.2564 63 35.99C63 39.7236 62.2915 43.2339 60.8746 46.5207C59.4576 49.8076 57.5345 52.6667 55.1054 55.0981C52.6763 57.5294 49.8199 59.4543 46.5362 60.8726C43.2523 62.2909 39.7437 63 36.0101 63ZM36 60C42.7 60 48.375 57.675 53.025 53.025C57.675 48.375 60 42.7 60 36C60 29.3 57.675 23.625 53.025 18.975C48.375 14.325 42.7 12 36 12C29.3 12 23.625 14.325 18.975 18.975C14.325 23.625 12 29.3 12 36C12 42.7 14.325 48.375 18.975 53.025C23.625 57.675 29.3 60 36 60Z" fill="#D9AC36"/>
</g>
</svg>
